<svg width="149" height="57" viewBox="0 0 149 57" fill="none" xmlns="http://www.w3.org/2000/svg">
<path d="M3.06 38V13.088H12.096C14.568 13.088 16.416 13.604 17.64 14.636C18.888 15.644 19.512 17.24 19.512 19.424C19.512 21.008 19.248 22.232 18.72 23.096C18.192 23.96 17.388 24.644 16.308 25.148C18.948 26.06 20.268 28.016 20.268 31.016C20.268 33.512 19.608 35.3 18.288 36.38C16.968 37.46 15.06 38 12.564 38H3.06ZM12.276 26.552H5.832V35.552H12.456C14.112 35.552 15.36 35.216 16.2 34.544C17.04 33.848 17.46 32.636 17.46 30.908C17.46 29.996 17.28 29.228 16.92 28.604C16.584 27.98 16.128 27.536 15.552 27.272C14.472 26.792 13.38 26.552 12.276 26.552ZM11.988 15.536H5.832V24.14H12.24C13.776 24.14 14.892 23.78 15.588 23.06C16.308 22.316 16.668 21.2 16.668 19.712C16.668 18.224 16.284 17.156 15.516 16.508C14.772 15.86 13.596 15.536 11.988 15.536ZM23.9836 28.964C23.9836 27.308 24.1156 25.892 24.3796 24.716C24.6676 23.54 25.1236 22.58 25.7476 21.836C26.3716 21.068 27.1756 20.516 28.1596 20.18C29.1436 19.82 30.3316 19.64 31.7236 19.64C33.1156 19.64 34.2916 19.82 35.2516 20.18C36.2356 20.516 37.0276 21.068 37.6276 21.836C38.2516 22.58 38.6956 23.54 38.9596 24.716C39.2476 25.892 39.3916 27.308 39.3916 28.964C39.3916 30.62 39.2596 32.036 38.9956 33.212C38.7556 34.388 38.3356 35.36 37.7356 36.128C37.1356 36.896 36.3436 37.46 35.3596 37.82C34.3756 38.18 33.1516 38.36 31.6876 38.36C30.2236 38.36 28.9996 38.18 28.0156 37.82C27.0316 37.46 26.2396 36.896 25.6396 36.128C25.0396 35.36 24.6076 34.388 24.3436 33.212C24.1036 32.036 23.9836 30.62 23.9836 28.964ZM26.7556 28.892C26.7556 30.212 26.8156 31.328 26.9356 32.24C27.0796 33.128 27.3316 33.86 27.6916 34.436C28.0756 34.988 28.5916 35.396 29.2396 35.66C29.8876 35.9 30.7156 36.02 31.7236 36.02C32.7316 36.02 33.5476 35.9 34.1716 35.66C34.8196 35.42 35.3236 35.024 35.6836 34.472C36.0436 33.896 36.2836 33.164 36.4036 32.276C36.5476 31.364 36.6196 30.248 36.6196 28.928C36.6196 27.608 36.5356 26.504 36.3676 25.616C36.2236 24.728 35.9596 24.02 35.5756 23.492C35.1916 22.94 34.6876 22.556 34.0636 22.34C33.4396 22.1 32.6596 21.98 31.7236 21.98C30.7876 21.98 29.9956 22.1 29.3476 22.34C28.7236 22.556 28.2196 22.94 27.8356 23.492C27.4516 24.02 27.1756 24.728 27.0076 25.616C26.8396 26.48 26.7556 27.572 26.7556 28.892ZM43.0031 28.964C43.0031 27.308 43.1351 25.892 43.3991 24.716C43.6871 23.54 44.1431 22.58 44.7671 21.836C45.3911 21.068 46.1951 20.516 47.1791 20.18C48.1631 19.82 49.3511 19.64 50.7431 19.64C52.1351 19.64 53.3111 19.82 54.2711 20.18C55.2551 20.516 56.0471 21.068 56.6471 21.836C57.2711 22.58 57.7151 23.54 57.9791 24.716C58.2671 25.892 58.4111 27.308 58.4111 28.964C58.4111 30.62 58.2791 32.036 58.0151 33.212C57.7751 34.388 57.3551 35.36 56.7551 36.128C56.1551 36.896 55.3631 37.46 54.3791 37.82C53.3951 38.18 52.1711 38.36 50.7071 38.36C49.2431 38.36 48.0191 38.18 47.0351 37.82C46.0511 37.46 45.2591 36.896 44.6591 36.128C44.0591 35.36 43.6271 34.388 43.3631 33.212C43.1231 32.036 43.0031 30.62 43.0031 28.964ZM45.7751 28.892C45.7751 30.212 45.8351 31.328 45.9551 32.24C46.0991 33.128 46.3511 33.86 46.7111 34.436C47.0951 34.988 47.6111 35.396 48.2591 35.66C48.9071 35.9 49.7351 36.02 50.7431 36.02C51.7511 36.02 52.5671 35.9 53.1911 35.66C53.8391 35.42 54.3431 35.024 54.7031 34.472C55.0631 33.896 55.3031 33.164 55.4231 32.276C55.5671 31.364 55.6391 30.248 55.6391 28.928C55.6391 27.608 55.5551 26.504 55.3871 25.616C55.2431 24.728 54.9791 24.02 54.5951 23.492C54.2111 22.94 53.7071 22.556 53.0831 22.34C52.4591 22.1 51.6791 21.98 50.7431 21.98C49.8071 21.98 49.0151 22.1 48.3671 22.34C47.7431 22.556 47.2391 22.94 46.8551 23.492C46.4711 24.02 46.1951 24.728 46.0271 25.616C45.8591 26.48 45.7751 27.572 45.7751 28.892ZM68.4667 22.052C65.8507 22.052 64.5427 22.964 64.5427 24.788C64.5427 25.652 64.8427 26.24 65.4427 26.552C66.0667 26.912 67.4347 27.272 69.5467 27.632C70.6267 27.824 71.5387 28.04 72.2827 28.28C73.0267 28.496 73.6267 28.808 74.0827 29.216C74.5627 29.6 74.8987 30.092 75.0907 30.692C75.3067 31.292 75.4147 32.06 75.4147 32.996C75.4147 34.868 74.8267 36.236 73.6507 37.1C72.4747 37.94 70.7347 38.36 68.4307 38.36C67.6867 38.36 66.8707 38.312 65.9827 38.216C65.1187 38.144 64.1827 38.024 63.1747 37.856L62.0947 37.676L62.2387 35.336C63.6067 35.528 64.8067 35.684 65.8387 35.804C66.8707 35.9 67.7347 35.948 68.4307 35.948C69.8227 35.948 70.8787 35.732 71.5987 35.3C72.3427 34.844 72.7147 34.088 72.7147 33.032C72.7147 32.024 72.4027 31.316 71.7787 30.908C71.1307 30.524 69.7627 30.176 67.6747 29.864C66.6187 29.696 65.7187 29.504 64.9747 29.288C64.2547 29.048 63.6547 28.748 63.1747 28.388C62.7187 28.004 62.3827 27.524 62.1667 26.948C61.9507 26.372 61.8427 25.652 61.8427 24.788C61.8427 23.924 61.9987 23.168 62.3107 22.52C62.6467 21.872 63.1027 21.332 63.6787 20.9C64.2547 20.468 64.9387 20.156 65.7307 19.964C66.5227 19.748 67.3867 19.64 68.3227 19.64C69.0667 19.64 69.8947 19.688 70.8067 19.784C71.7187 19.856 72.7267 19.976 73.8307 20.144L74.8387 20.324L74.7667 22.628C73.4227 22.436 72.2227 22.292 71.1667 22.196C70.1347 22.1 69.2347 22.052 68.4667 22.052ZM88.873 20V22.34H83.149V30.944C83.149 33.032 83.305 34.388 83.617 35.012C83.905 35.66 84.613 35.984 85.741 35.984L88.945 35.768L89.125 38C88.309 38.12 87.589 38.216 86.965 38.288C86.365 38.36 85.861 38.396 85.453 38.396C84.517 38.396 83.725 38.288 83.077 38.072C82.453 37.88 81.949 37.532 81.565 37.028C81.181 36.524 80.905 35.852 80.737 35.012C80.569 34.172 80.485 33.104 80.485 31.808V22.34H77.929V20H80.485V14.492H83.149V20H88.873Z" fill="#004D60"/>
<path d="M115.557 36.6552L117.277 35.317L110.874 29.5344L109.727 31.5894L115.557 36.6552Z" fill="#004D60"/>
<path d="M115.557 37.1331L114.314 36.0817L114.193 37.6311C114.147 38.2215 114.04 38.8055 113.874 39.3742C113.534 40.5432 112.952 41.6275 112.165 42.5563L111.347 43.5208C111.096 43.8177 110.818 44.0915 110.518 44.3389L109.989 44.7746C109.565 45.1237 109.066 45.3706 108.532 45.4964L110.043 41.7881C110.084 41.6854 110.077 41.5691 110.022 41.4727C109.957 41.3602 109.838 41.2908 109.708 41.2908H109.702C109.625 41.2908 109.549 41.315 109.486 41.3599L100.742 47.5991L105.827 38.0877C105.876 37.9973 105.883 37.8905 105.847 37.7945L105.838 37.7713C105.791 37.6461 105.671 37.5632 105.538 37.5632C105.495 37.5632 105.453 37.5717 105.414 37.5881L104.523 37.9619C104.17 38.1099 103.832 38.2922 103.514 38.5061L101.793 39.6659L102.272 38.5083C102.557 37.817 102.924 37.1622 103.365 36.5578L103.418 36.4842C104.05 35.6176 104.834 34.8724 105.73 34.2843C106.759 33.6101 107.915 33.1562 109.127 32.951L110.396 32.7364L109.249 31.685H107.911L107.347 31.7907C106.197 32.0063 105.073 32.3451 103.995 32.8011L103.872 32.853C102.557 33.4097 101.325 34.1472 100.213 35.0442C99.3573 35.7339 98.5785 36.5133 97.8894 37.369L97.6879 37.6193C96.5443 39.0395 95.6187 40.6222 94.9416 42.3151L94.6249 43.1068L98.687 40.574L100.503 39.6659L101.172 39.5704L101.602 39.9049V40.574L101.363 41.3864L93 56.4881L106.811 46.3088L107.815 45.8309H108.532L108.627 46.7867L105.951 53.095L107.186 52.3502C108.523 51.5441 109.746 50.5622 110.822 49.4307L110.914 49.3332C112.216 47.9641 113.275 46.3836 114.046 44.6593C114.887 42.7804 115.372 40.762 115.477 38.7063L115.557 37.1331Z" fill="#004D60"/>
<path d="M114.079 35.9467L113.413 35.4006L113.349 36.2006C113.324 36.5104 113.266 36.8167 113.177 37.1144C112.995 37.719 112.687 38.2778 112.271 38.7532L111.828 39.2603C111.691 39.4174 111.54 39.5619 111.377 39.692L111.101 39.9129C110.871 40.0962 110.603 40.2254 110.317 40.2907L111.125 38.367C111.148 38.3123 111.144 38.25 111.114 38.1988C111.08 38.1415 111.018 38.1063 110.952 38.1063H110.943C110.902 38.1063 110.862 38.1189 110.828 38.1423L106.146 41.3829L108.868 36.4442C108.894 36.3964 108.898 36.3393 108.878 36.2883L108.876 36.2816C108.85 36.2144 108.785 36.1701 108.713 36.1701C108.691 36.1701 108.668 36.1745 108.648 36.183L108.172 36.3764C107.982 36.4538 107.799 36.5495 107.627 36.6619L106.709 37.2623L106.961 36.6702C107.116 36.3051 107.315 35.9601 107.554 35.6429L107.568 35.6246C107.913 35.1646 108.339 34.7708 108.825 34.462C109.37 34.115 109.98 33.8821 110.618 33.7774L111.315 33.663L110.701 33.1169H109.984L109.674 33.1734C109.063 33.2844 108.467 33.459 107.893 33.6945L107.808 33.7295C107.112 34.0148 106.46 34.3943 105.868 34.8574C105.406 35.2185 104.984 35.6281 104.61 36.0791L104.416 36.3132C103.865 36.9768 103.394 37.7026 103.012 38.4758L103 38.5L104.602 37.6789C104.979 37.486 105.391 37.3726 105.813 37.3459H106.053C106.114 37.3459 106.175 37.3585 106.231 37.383C106.394 37.454 106.5 37.6152 106.5 37.7933V37.8655C106.5 37.9539 106.479 38.041 106.439 38.1197L106.146 38.6916L102 45.9999L109.396 40.7127L109.822 40.5159C109.895 40.482 109.975 40.4645 110.056 40.4645C110.221 40.4645 110.378 40.5379 110.484 40.665L110.489 40.6708C110.62 40.8279 110.658 41.043 110.587 41.2352L109.396 44.5L109.589 44.3572C110.362 43.7879 111.061 43.1261 111.672 42.3866L111.844 42.1787C112.376 41.535 112.823 40.8252 113.173 40.0668C113.687 38.952 113.984 37.7496 114.048 36.5236L114.079 35.9467Z" fill="#004D60"/>
<path d="M123.394 46.1654L126.931 42.1988C126.931 42.1988 126.911 39.8315 127.217 37.2286C127.641 33.636 129.033 26.3803 129.033 26.3803C131.805 23.2261 134.189 21.5655 136.728 17.7302C139.266 13.8949 142.032 6.73849 142.032 6.73849L135.82 1.38599C131.853 3.2976 129.011 5.40036 124.828 9.128C121.359 12.2187 117.946 17.2045 117.946 17.2045C117.946 17.2045 111.816 19.1966 108.866 19.9764C105.967 20.7425 102.988 21.1711 102.988 21.1711L99.5469 25.3289C99.5469 25.3289 105.49 25.4429 107.767 25.8068C110.044 26.1707 111.208 27.1927 111.208 27.1927L110.204 28.5786L114.075 31.9239L122.391 22.3181L123.203 23.035L114.888 32.7842L118.137 35.5082L119.858 34.648C119.858 34.648 121.354 37.3088 122.008 39.1403C122.95 41.7734 123.394 46.1654 123.394 46.1654Z" fill="#004D60"/>
<circle cx="135.533" cy="7.98094" r="2.86741" fill="#F5F5F5"/>
<path d="M136.441 1.05138L142.224 6.06936L142.554 4.94611C142.653 4.61213 142.727 4.27151 142.776 3.92688L142.861 3.33161C142.914 2.96082 142.907 2.58393 142.841 2.21527L142.741 1.6582C142.654 1.1748 142.394 0.739771 142.009 0.434932C141.653 0.153258 141.212 0 140.759 0H140.06C139.595 0 139.133 0.0807231 138.695 0.238579L136.441 1.05138Z" fill="#004D60"/>
</svg>
